<?xml version="1.0" encoding="UTF-8" standalone="no"?>
<svg
   xmlns:dc="http://purl.org/dc/elements/1.1/"
   xmlns:cc="http://creativecommons.org/ns#"
   xmlns:rdf="http://www.w3.org/1999/02/22-rdf-syntax-ns#"
   xmlns:svg="http://www.w3.org/2000/svg"
   xmlns="http://www.w3.org/2000/svg"
   viewBox="50 100 380 280"
   height="280"
   width="380"
   xml:space="preserve"
   id="svg2"
   version="1.1"><metadata
     id="metadata8"><rdf:RDF><cc:Work
         rdf:about=""><dc:format>image/svg+xml</dc:format><dc:type
           rdf:resource="http://purl.org/dc/dcmitype/StillImage" /></cc:Work></rdf:RDF></metadata><defs
     id="defs6"><clipPath
       id="clipPath20"
       clipPathUnits="userSpaceOnUse"><path
         id="path18"
         d="M 0,360 H 360 V 0 H 0 Z" /></clipPath><clipPath
       id="clipPath60"
       clipPathUnits="userSpaceOnUse"><path
         id="path58"
         d="M 0,360 H 360 V 0 H 0 Z" /></clipPath></defs><g
     transform="matrix(1.3333333,0,0,-1.3333333,0,480)"
     id="g10"><path
       id="path12"
       style="fill:#ffffff;fill-opacity:1;fill-rule:nonzero;stroke:none"
       d="M 0,0 H 360 V 359.619 H 0 Z" /><g
       id="g14"><g
         clip-path="url(#clipPath20)"
         id="g16"><g
           transform="translate(179.9995,158.8799)"
           id="g22"><path
             id="path24"
             style="fill:#ffffff;fill-opacity:1;fill-rule:nonzero;stroke:none"
             d="m 0,0 c -22.038,0 -41.616,14.018 -48.717,34.885 -0.181,0.53 -0.36,1.059 -0.522,1.593 -0.074,0.241 -0.137,0.472 -0.201,0.703 l -0.084,0.299 c -0.754,2.683 -1.294,5.431 -1.601,8.165 -0.035,0.294 -0.068,0.584 -0.098,0.873 -0.157,1.669 -0.238,3.335 -0.238,4.946 0,1.611 0.081,3.278 0.238,4.952 0.702,7.312 2.916,14.257 6.586,20.645 2.275,3.959 5.04,7.58 8.219,10.762 9.725,9.74 22.659,15.105 36.418,15.105 13.762,0 26.696,-5.365 36.418,-15.105 3.174,-3.177 5.94,-6.798 8.221,-10.762 2.838,-4.933 4.819,-10.26 5.889,-15.837 0.285,-1.48 0.503,-2.944 0.653,-4.353 0.188,-1.806 0.284,-3.626 0.284,-5.407 0,-1.782 -0.096,-3.602 -0.285,-5.408 L 51.178,45.938 51.127,45.643 C 50.984,44.354 50.784,43.029 50.528,41.704 50.267,40.335 49.94,38.953 49.525,37.479 49.433,37.141 49.342,36.81 49.242,36.482 49.083,35.949 48.907,35.433 48.728,34.914 41.618,14.018 22.04,0 0,0" /></g><g
           transform="translate(179.9995,256.3818)"
           id="g26"><path
             id="path28"
             style="fill:#9fdae2;fill-opacity:1;fill-rule:nonzero;stroke:none"
             d="M 0,0 C -10.261,0 -19.738,-3.36 -27.394,-9.038 H 27.394 C 19.741,-3.36 10.261,0 0,0" /></g><g
           transform="translate(232.0811,204.4238)"
           id="g30"><path
             id="path32"
             style="fill:#8ecfd6;fill-opacity:1;fill-rule:nonzero;stroke:none"
             d="M 0,0 V 0.418 C -0.016,0.277 -0.037,0.141 -0.055,0 Z" /></g><g
           transform="translate(142.0425,236.3916)"
           id="g34"><path
             id="path36"
             style="fill:#8ecfd6;fill-opacity:1;fill-rule:nonzero;stroke:none"
             d="M 0,0 H 75.915 C 73.021,4.209 69.45,7.916 65.351,10.952 H 10.563 C 6.468,7.916 2.894,4.209 0,0" /></g><g
           transform="translate(170.5742,190.2539)"
           id="g38"><path
             id="path40"
             style="fill:#04607a;fill-opacity:1;fill-rule:nonzero;stroke:none"
             d="m 0,0 c -0.292,0.152 -0.568,0.3 -0.833,0.45 -1.787,1 -2.933,1.922 -3.563,2.768 -1.349,1.803 -0.378,3.267 1.596,4.426 0.494,0.292 1.052,0.562 1.652,0.818 2.402,1.013 5.478,1.73 7.916,2.187 -12.85,-0.066 -24.426,-0.622 -32.976,-1.492 -3.462,-0.351 -6.427,-0.752 -8.779,-1.194 0.029,-0.106 0.061,-0.212 0.088,-0.319 0.425,-1.508 0.924,-2.983 1.49,-4.426 0.066,-0.16 0.125,-0.322 0.191,-0.482 3.993,-9.798 11.26,-17.917 20.447,-22.986 C 10.793,-20.53 19.26,-9.941 0,0" /></g><g
           transform="translate(221.375,198.7158)"
           id="g42"><path
             id="path44"
             style="fill:#04607a;fill-opacity:1;fill-rule:nonzero;stroke:none"
             d="m 0,0 c -7.693,1.116 -19.624,1.91 -33.415,2.134 -4.732,-0.16 -8.784,-1.517 -10.423,-2.952 -1.333,-1.168 -0.522,-2.663 2.249,-4.426 1.382,-0.877 3.247,-1.827 5.582,-2.847 2.375,-1.032 5.23,-2.138 8.546,-3.319 14.109,-5.008 15.142,-10.374 12.941,-14.344 6.984,5.023 12.499,11.95 15.791,20.028 0.063,0.161 0.125,0.322 0.188,0.482 0.568,1.443 1.065,2.918 1.49,4.426 0.028,0.107 0.059,0.214 0.092,0.319 C 2.118,-0.327 1.098,-0.16 0,0" /></g><g
           transform="translate(228.1934,204.4238)"
           id="g46"><path
             id="path48"
             style="fill:#04607a;fill-opacity:1;fill-rule:nonzero;stroke:none"
             d="m 0,0 c -0.117,-0.966 -0.263,-1.92 -0.435,-2.861 -0.019,-0.109 -0.037,-0.217 -0.059,-0.325 -0.229,-1.2 -0.499,-2.389 -0.814,-3.559 -0.38,-1.411 -0.816,-2.799 -1.315,-4.155 -0.01,-0.018 -0.017,-0.035 -0.022,-0.052 -3.822,-10.313 -11.043,-18.976 -20.308,-24.626 1.619,0.534 0.902,0.241 -0.441,-0.258 -7.261,-4.319 -15.738,-6.811 -24.8,-6.811 -20.886,0 -38.695,13.188 -45.549,31.695 -0.005,0.017 -0.011,0.034 -0.019,0.052 -0.502,1.356 -0.937,2.744 -1.318,4.155 -0.315,1.17 -0.585,2.359 -0.814,3.559 -0.017,0.101 -0.034,0.202 -0.051,0.297 -0.177,0.956 -0.325,1.915 -0.443,2.889 -0.236,1.939 -0.373,3.916 -0.373,5.92 0,9.588 2.793,18.521 7.589,26.048 2.621,4.114 5.839,7.806 9.538,10.952 8.477,7.209 19.444,11.567 31.44,11.567 11.995,0 22.966,-4.358 31.44,-11.567 3.7,-3.146 6.918,-6.838 9.541,-10.952 C -2.419,24.441 0.375,15.508 0.375,5.92 0.375,3.916 0.236,1.939 0,0 m 3.888,11.422 c -0.158,1.496 -0.384,2.974 -0.664,4.429 -1.107,5.768 -3.16,11.192 -5.995,16.117 -2.307,4.013 -5.115,7.701 -8.363,10.952 -9.479,9.494 -22.585,15.37 -37.06,15.37 -14.474,0 -27.58,-5.876 -37.059,-15.37 -3.248,-3.251 -6.058,-6.939 -8.364,-10.952 -3.619,-6.299 -5.974,-13.412 -6.701,-21.01 -0.157,-1.659 -0.244,-3.339 -0.244,-5.038 0,-1.7 0.087,-3.378 0.244,-5.037 0.029,-0.293 0.064,-0.588 0.098,-0.883 0.319,-2.845 0.872,-5.619 1.63,-8.31 0.095,-0.34 0.184,-0.68 0.29,-1.016 0.165,-0.546 0.346,-1.085 0.531,-1.626 7.023,-20.639 26.558,-35.499 49.575,-35.499 23.018,0 42.552,14.86 49.576,35.499 0.184,0.541 0.369,1.08 0.531,1.626 0.104,0.336 0.197,0.676 0.29,1.016 0.397,1.41 0.742,2.84 1.021,4.3 0.253,1.318 0.46,2.656 0.609,4.01 0.018,0.141 0.039,0.277 0.055,0.418 0.188,1.807 0.29,3.643 0.29,5.502 0,1.86 -0.102,3.694 -0.29,5.502" /></g><g
           transform="translate(217.957,236.3916)"
           id="g50"><path
             id="path52"
             style="fill:#78bdc9;fill-opacity:1;fill-rule:nonzero;stroke:none"
             d="m 0,0 h -75.915 c -5.096,-7.409 -8.083,-16.375 -8.083,-26.048 0,-2.007 0.143,-3.98 0.394,-5.92 0.021,-0.172 0.041,-0.346 0.066,-0.516 l 0.472,0.516 8.547,9.331 4.935,4.059 6.529,8.46 3.305,-3.608 3.18,-0.699 1.38,-0.934 13.784,-12.073 -10.428,12.133 4.37,4.349 3.24,1.904 6.266,7.567 5.434,-4.923 5.275,-6.652 2.103,-1.659 3.651,-3.761 -8.082,11.07 2.075,1.619 4.35,-3.867 1.983,-1.128 2.114,-2.101 3.216,-3.702 1.773,-0.979 7.394,-7.102 -5.453,7.566 -3.663,3.736 2.929,3.244 5.912,-7.116 4.914,-3.49 9.432,-11.244 0.251,-0.3 c 0.018,0.096 0.025,0.2 0.04,0.3 0.251,1.94 0.393,3.913 0.393,5.92 C 8.083,-16.375 5.097,-7.409 0,0" /></g></g></g><g
       id="g54"><g
         clip-path="url(#clipPath60)"
         id="g56"><g
           transform="translate(88.8857,110.8779)"
           id="g62"><path
             id="path64"
             style="fill:#04607a;fill-opacity:1;fill-rule:nonzero;stroke:none"
             d="m 0,0 v 16.697 c 0,0.663 0.01,1.347 0.029,2.053 0.017,0.703 0.042,1.347 0.067,1.935 0.039,0.69 0.071,1.362 0.098,2.013 C -0.079,21.668 -0.34,20.692 -0.588,19.766 -0.691,19.374 -0.802,18.971 -0.92,18.553 -1.038,18.136 -1.151,17.731 -1.261,17.341 -1.372,16.95 -1.48,16.584 -1.586,16.247 -1.689,15.908 -1.78,15.613 -1.858,15.367 L -6.825,0 h -4.105 l -4.966,15.367 c -0.079,0.246 -0.167,0.541 -0.263,0.88 -0.098,0.337 -0.204,0.703 -0.315,1.094 -0.11,0.39 -0.223,0.795 -0.341,1.212 -0.119,0.418 -0.234,0.821 -0.352,1.213 -0.261,0.926 -0.534,1.902 -0.821,2.932 0.039,-0.755 0.078,-1.5 0.118,-2.229 0.024,-0.625 0.052,-1.284 0.078,-1.975 0.025,-0.69 0.038,-1.291 0.038,-1.797 V 0 h -5.121 v 27.546 h 7.722 l 4.926,-15.404 c 0.13,-0.406 0.27,-0.901 0.42,-1.488 0.15,-0.585 0.298,-1.152 0.44,-1.701 0.158,-0.639 0.327,-1.303 0.509,-1.994 0.182,0.68 0.359,1.33 0.529,1.955 0.079,0.275 0.155,0.556 0.233,0.841 0.079,0.287 0.158,0.567 0.236,0.841 0.077,0.274 0.155,0.535 0.234,0.781 0.079,0.249 0.15,0.47 0.214,0.667 l 4.85,15.502 H 5.121 L 5.121,0 Z" /></g><g
           transform="translate(116.3901,130.1738)"
           id="g66"><path
             id="path68"
             style="fill:#04607a;fill-opacity:1;fill-rule:nonzero;stroke:none"
             d="M 0,0 C -0.158,0.457 -0.31,0.917 -0.46,1.379 -0.61,1.842 -0.74,2.264 -0.851,2.65 -0.961,3.033 -1.052,3.351 -1.124,3.599 -1.197,3.845 -1.239,3.982 -1.251,4.01 -1.264,3.97 -1.303,3.825 -1.37,3.579 -1.434,3.33 -1.522,3.019 -1.632,2.641 -1.743,2.262 -1.874,1.842 -2.024,1.379 -2.173,0.917 -2.328,0.457 -2.483,0 l -2.719,-7.919 h 7.918 z m 6.45,-19.296 -2.443,7.038 H -6.49 l -2.447,-7.038 h -5.767 L -4.654,8.25 h 6.805 l 10.01,-27.546 z" /></g><g
           transform="translate(154.5288,129.9795)"
           id="g70"><path
             id="path72"
             style="fill:#04607a;fill-opacity:1;fill-rule:nonzero;stroke:none"
             d="m 0,0 c 0,1.342 -0.44,2.338 -1.32,2.992 -0.881,0.651 -2.135,0.976 -3.764,0.976 h -7.39 v -8.133 h 7.547 c 0.861,0 1.598,0.102 2.218,0.303 0.619,0.201 1.128,0.489 1.526,0.86 0.396,0.371 0.693,0.812 0.888,1.32 C -0.099,-1.173 0,-0.612 0,0 m 0.683,-19.102 -6.391,10.46 h -6.766 v -10.46 h -5.767 V 8.444 h 13.764 c 1.719,0 3.221,-0.192 4.506,-0.575 C 1.312,7.482 2.384,6.937 3.245,6.228 4.105,5.517 4.747,4.655 5.17,3.646 5.595,2.635 5.806,1.497 5.806,0.233 5.806,-0.797 5.652,-1.738 5.347,-2.591 5.04,-3.444 4.617,-4.204 4.076,-4.868 3.535,-5.534 2.894,-6.092 2.151,-6.539 1.406,-6.989 0.6,-7.318 -0.276,-7.528 l 7.449,-11.574 z" /></g><g
           transform="translate(182.2266,130.1738)"
           id="g74"><path
             id="path76"
             style="fill:#04607a;fill-opacity:1;fill-rule:nonzero;stroke:none"
             d="M 0,0 C -0.154,0.457 -0.309,0.917 -0.459,1.379 -0.609,1.842 -0.74,2.264 -0.85,2.65 -0.961,3.033 -1.052,3.351 -1.123,3.599 -1.194,3.845 -1.236,3.982 -1.25,4.01 -1.264,3.97 -1.303,3.825 -1.366,3.579 -1.433,3.33 -1.521,3.019 -1.632,2.641 -1.742,2.262 -1.873,1.842 -2.023,1.379 -2.173,0.917 -2.325,0.457 -2.482,0 L -5.199,-7.919 H 2.719 Z M 6.453,-19.296 4.01,-12.258 H -6.489 l -2.444,-7.038 h -5.768 L -4.651,8.25 h 6.802 l 10.011,-27.546 z" /></g><g
           transform="translate(218.9014,110.8779)"
           id="g78"><path
             id="path80"
             style="fill:#04607a;fill-opacity:1;fill-rule:nonzero;stroke:none"
             d="m 0,0 -12.005,21.213 c 0.067,-0.575 0.126,-1.148 0.177,-1.721 0.053,-0.496 0.094,-1.03 0.129,-1.603 0.032,-0.576 0.046,-1.12 0.046,-1.642 V 0 h -5.12 v 27.546 h 6.587 L 1.996,6.158 C 1.93,6.706 1.871,7.279 1.818,7.879 1.768,8.388 1.724,8.96 1.691,9.6 1.659,10.236 1.642,10.884 1.642,11.534 V 27.546 H 6.766 V 0 Z" /></g><g
           transform="translate(248.126,115.0029)"
           id="g82"><path
             id="path84"
             style="fill:#04607a;fill-opacity:1;fill-rule:nonzero;stroke:none"
             d="m 0,0 c 0.834,0 1.638,0.064 2.405,0.194 0.77,0.131 1.482,0.305 2.141,0.519 0.659,0.217 1.251,0.462 1.78,0.743 0.528,0.279 0.961,0.569 1.301,0.87 V 6.139 H 0.9 v 4.262 H 12.904 V 0.272 C 12.28,-0.366 11.522,-0.974 10.638,-1.554 9.751,-2.134 8.752,-2.643 7.646,-3.08 6.537,-3.516 5.328,-3.864 4.021,-4.125 2.709,-4.386 1.317,-4.516 -0.154,-4.516 c -2.439,0 -4.536,0.354 -6.296,1.064 -1.76,0.711 -3.206,1.702 -4.342,2.973 -1.133,1.27 -1.972,2.78 -2.513,4.525 -0.54,1.749 -0.81,3.656 -0.81,5.728 0,2.152 0.287,4.094 0.86,5.827 0.572,1.733 1.442,3.211 2.61,4.429 1.166,1.218 2.633,2.157 4.399,2.816 1.767,0.656 3.843,0.985 6.226,0.985 1.734,0 3.275,-0.169 4.625,-0.506 1.349,-0.34 2.53,-0.821 3.541,-1.448 1.006,-0.624 1.855,-1.379 2.539,-2.257 0.686,-0.88 1.228,-1.868 1.634,-2.962 l -5.32,-1.602 c -0.233,0.572 -0.546,1.115 -0.937,1.631 -0.39,0.514 -0.877,0.964 -1.457,1.347 -0.581,0.387 -1.251,0.692 -2.013,0.92 -0.763,0.229 -1.632,0.342 -2.612,0.342 -1.432,0 -2.671,-0.224 -3.714,-0.674 -1.042,-0.449 -1.903,-1.091 -2.581,-1.925 -0.676,-0.836 -1.178,-1.836 -1.504,-3.002 -0.325,-1.167 -0.49,-2.472 -0.49,-3.921 0,-1.433 0.167,-2.748 0.499,-3.948 0.332,-1.199 0.841,-2.229 1.524,-3.09 C -5.6,1.876 -4.737,1.205 -3.694,0.723 -2.652,0.241 -1.421,0 0,0" /></g><g
           transform="translate(281.6543,110.4873)"
           id="g86"><path
             id="path88"
             style="fill:#04607a;fill-opacity:1;fill-rule:nonzero;stroke:none"
             d="m 0,0 c -1.722,0 -3.297,0.204 -4.73,0.614 -1.436,0.41 -2.67,1.05 -3.708,1.918 -1.035,0.864 -1.843,1.976 -2.423,3.333 -0.58,1.355 -0.871,2.97 -0.871,4.848 v 17.224 h 5.77 V 11.163 c 0,-1.16 0.143,-2.16 0.428,-3.002 0.288,-0.841 0.698,-1.531 1.234,-2.072 0.533,-0.541 1.178,-0.94 1.935,-1.193 0.755,-0.252 1.595,-0.38 2.521,-0.38 0.94,0 1.803,0.132 2.592,0.4 0.787,0.269 1.465,0.681 2.033,1.242 0.566,0.56 1.006,1.271 1.318,2.131 0.314,0.86 0.469,1.884 0.469,3.068 v 16.58 h 5.768 V 11.006 C 12.336,9.115 12.03,7.48 11.419,6.099 10.804,4.717 9.951,3.574 8.857,2.667 7.761,1.763 6.463,1.091 4.955,0.653 3.451,0.218 1.799,0 0,0" /></g><g
           transform="translate(95.147,102.6123)"
           id="g90"><path
             id="path92"
             style="fill:#78bdc9;fill-opacity:1;fill-rule:nonzero;stroke:none"
             d="M 0,0 C -0.049,0.144 -0.096,0.283 -0.143,0.428 -0.189,0.571 -0.229,0.701 -0.263,0.819 -0.297,0.939 -0.327,1.037 -0.347,1.114 -0.371,1.19 -0.383,1.231 -0.386,1.239 -0.391,1.228 -0.403,1.183 -0.423,1.106 -0.442,1.03 -0.472,0.935 -0.504,0.816 -0.539,0.701 -0.58,0.571 -0.627,0.428 -0.671,0.283 -0.72,0.144 -0.767,0 l -0.841,-2.448 h 2.449 z m 1.994,-5.966 -0.755,2.175 h -3.247 l -0.755,-2.175 h -1.782 l 3.107,8.519 h 2.102 l 3.095,-8.519 z" /></g><g
           transform="translate(101.3003,96.6465)"
           id="g94"><path
             id="path96"
             style="fill:#78bdc9;fill-opacity:1;fill-rule:nonzero;stroke:none"
             d="M 0,0 V 8.519 H 1.782 V 1.379 H 6.353 V 0 Z" /></g><g
           transform="translate(118.0615,96.6465)"
           id="g98"><path
             id="path100"
             style="fill:#78bdc9;fill-opacity:1;fill-rule:nonzero;stroke:none"
             d="M 0,0 H -2.117 L -3.27,4.926 C -3.307,5.076 -3.346,5.253 -3.388,5.46 -3.429,5.664 -3.469,5.862 -3.506,6.057 -3.55,6.278 -3.591,6.51 -3.626,6.745 -3.67,6.51 -3.715,6.276 -3.759,6.053 -3.781,5.954 -3.8,5.855 -3.82,5.752 -3.84,5.648 -3.862,5.548 -3.884,5.45 -3.906,5.352 -3.926,5.258 -3.943,5.17 -3.963,5.081 -3.983,5 -4.002,4.926 L -5.15,0 h -2.117 l -2.192,8.519 h 1.806 l 1.065,-4.741 c 0.059,-0.258 0.115,-0.511 0.17,-0.762 0.051,-0.248 0.1,-0.472 0.144,-0.671 0.047,-0.229 0.091,-0.45 0.133,-0.658 0.059,0.299 0.118,0.588 0.174,0.87 0.025,0.123 0.052,0.245 0.079,0.376 0.027,0.128 0.057,0.255 0.081,0.38 0.028,0.126 0.052,0.244 0.079,0.36 0.027,0.115 0.049,0.219 0.069,0.312 l 1.052,4.534 h 1.996 L -1.534,3.985 C -1.512,3.887 -1.487,3.778 -1.463,3.66 -1.438,3.542 -1.414,3.416 -1.389,3.289 l 0.071,-0.376 c 0.025,-0.128 0.047,-0.253 0.067,-0.374 0.049,-0.283 0.096,-0.565 0.145,-0.852 0.049,0.225 0.098,0.459 0.152,0.7 0.044,0.207 0.094,0.432 0.15,0.678 0.056,0.247 0.113,0.485 0.17,0.713 L 0.393,8.519 H 2.2 Z" /></g><g
           transform="translate(125.6851,102.6123)"
           id="g102"><path
             id="path104"
             style="fill:#78bdc9;fill-opacity:1;fill-rule:nonzero;stroke:none"
             d="M 0,0 C -0.049,0.144 -0.096,0.283 -0.143,0.428 -0.189,0.571 -0.229,0.701 -0.263,0.819 -0.297,0.939 -0.327,1.037 -0.347,1.114 -0.371,1.19 -0.384,1.231 -0.386,1.239 -0.391,1.228 -0.403,1.183 -0.423,1.106 -0.442,1.03 -0.472,0.935 -0.504,0.816 -0.539,0.701 -0.58,0.571 -0.627,0.428 -0.671,0.283 -0.72,0.144 -0.767,0 L -1.608,-2.448 H 0.84 Z m 1.994,-5.966 -0.755,2.175 h -3.247 l -0.755,-2.175 h -1.783 l 3.108,8.519 h 2.102 l 3.094,-8.519 z" /></g><g
           transform="translate(134.896,100.1396)"
           id="g106"><path
             id="path108"
             style="fill:#78bdc9;fill-opacity:1;fill-rule:nonzero;stroke:none"
             d="M 0,0 V -3.493 H -1.777 V 0 l -3.036,5.025 h 1.868 l 2.043,-3.604 2.068,3.604 h 1.868 z" /></g><g
           transform="translate(147.1436,99.1025)"
           id="g110"><path
             id="path112"
             style="fill:#78bdc9;fill-opacity:1;fill-rule:nonzero;stroke:none"
             d="m 0,0 c 0,-0.389 -0.071,-0.74 -0.211,-1.058 -0.143,-0.314 -0.362,-0.588 -0.657,-0.811 -0.298,-0.226 -0.676,-0.401 -1.138,-0.524 -0.46,-0.123 -1.01,-0.184 -1.647,-0.184 -0.563,0 -1.062,0.05 -1.493,0.15 -0.43,0.101 -0.801,0.251 -1.108,0.448 -0.31,0.199 -0.558,0.442 -0.75,0.735 -0.192,0.292 -0.329,0.627 -0.415,1.008 l 1.723,0.283 c 0.049,-0.191 0.12,-0.361 0.211,-0.52 0.094,-0.157 0.222,-0.295 0.384,-0.407 0.165,-0.116 0.369,-0.204 0.612,-0.266 0.243,-0.064 0.538,-0.096 0.885,-0.096 0.605,0 1.067,0.094 1.386,0.275 0.323,0.185 0.482,0.472 0.482,0.863 0,0.234 -0.064,0.425 -0.194,0.573 -0.128,0.15 -0.299,0.273 -0.514,0.369 -0.214,0.099 -0.459,0.177 -0.737,0.243 -0.278,0.064 -0.568,0.126 -0.87,0.188 -0.241,0.056 -0.485,0.115 -0.726,0.173 -0.241,0.062 -0.472,0.134 -0.693,0.219 -0.219,0.084 -0.423,0.185 -0.612,0.303 -0.189,0.115 -0.354,0.261 -0.494,0.432 -0.138,0.17 -0.246,0.372 -0.324,0.6 -0.079,0.232 -0.119,0.5 -0.119,0.812 0,0.422 0.084,0.784 0.253,1.087 0.17,0.301 0.404,0.549 0.704,0.742 0.302,0.189 0.659,0.329 1.074,0.42 0.415,0.089 0.868,0.132 1.36,0.132 0.555,0 1.032,-0.043 1.43,-0.129 C -1.802,5.971 -1.47,5.841 -1.2,5.664 -0.932,5.486 -0.72,5.263 -0.565,4.995 -0.411,4.728 -0.298,4.413 -0.224,4.056 L -1.955,3.82 c -0.088,0.366 -0.267,0.642 -0.54,0.828 -0.271,0.185 -0.661,0.278 -1.171,0.278 -0.312,0 -0.575,-0.028 -0.781,-0.083 C -4.653,4.788 -4.821,4.715 -4.944,4.624 -5.066,4.53 -5.153,4.423 -5.207,4.299 -5.259,4.176 -5.286,4.046 -5.286,3.911 -5.286,3.699 -5.234,3.527 -5.133,3.393 -5.032,3.257 -4.892,3.144 -4.71,3.055 -4.528,2.964 -4.312,2.888 -4.062,2.824 -3.808,2.763 -3.53,2.699 -3.23,2.635 -2.962,2.578 -2.699,2.52 -2.436,2.456 -2.176,2.394 -1.925,2.32 -1.687,2.234 -1.45,2.151 -1.229,2.048 -1.022,1.927 -0.816,1.807 -0.639,1.659 -0.487,1.482 -0.337,1.308 -0.216,1.099 -0.13,0.857 -0.044,0.614 0,0.329 0,0" /></g><g
           transform="translate(160.0107,102.5537)"
           id="g114"><path
             id="path116"
             style="fill:#78bdc9;fill-opacity:1;fill-rule:nonzero;stroke:none"
             d="m 0,0 c 0,0.413 -0.135,0.723 -0.408,0.925 -0.273,0.201 -0.659,0.302 -1.163,0.302 h -2.286 v -2.515 h 2.333 c 0.265,0 0.497,0.031 0.686,0.093 0.192,0.062 0.349,0.15 0.472,0.266 0.123,0.115 0.216,0.25 0.275,0.408 C -0.029,-0.363 0,-0.189 0,0 m 0.211,-5.907 -1.976,3.235 h -2.092 v -3.235 h -1.782 v 8.518 h 4.255 c 0.531,0 0.995,-0.059 1.394,-0.18 C 0.406,2.313 0.737,2.144 1.003,1.925 1.269,1.706 1.468,1.438 1.598,1.126 1.731,0.813 1.794,0.462 1.794,0.071 1.794,-0.246 1.748,-0.538 1.654,-0.802 1.559,-1.066 1.428,-1.3 1.261,-1.507 1.094,-1.712 0.895,-1.883 0.664,-2.023 0.435,-2.161 0.185,-2.264 -0.083,-2.328 l 2.301,-3.579 z" /></g><g
           transform="translate(171.0117,100.9463)"
           id="g118"><path
             id="path120"
             style="fill:#78bdc9;fill-opacity:1;fill-rule:nonzero;stroke:none"
             d="M 0,0 C 0,0.447 -0.054,0.85 -0.16,1.211 -0.268,1.57 -0.425,1.88 -0.634,2.138 -0.845,2.396 -1.104,2.596 -1.411,2.733 -1.721,2.874 -2.077,2.942 -2.485,2.942 -2.9,2.942 -3.265,2.874 -3.577,2.733 -3.889,2.596 -4.149,2.396 -4.358,2.138 -4.567,1.88 -4.725,1.57 -4.831,1.211 -4.936,0.85 -4.988,0.447 -4.988,0 c 0,-0.445 0.054,-0.851 0.16,-1.22 0.108,-0.369 0.266,-0.685 0.474,-0.951 0.212,-0.266 0.47,-0.475 0.782,-0.625 0.31,-0.147 0.669,-0.224 1.075,-0.224 0.434,0 0.811,0.077 1.125,0.23 0.315,0.149 0.573,0.358 0.777,0.626 0.202,0.268 0.354,0.588 0.45,0.956 C -0.049,-0.839 0,-0.438 0,0 M 1.819,0 C 1.819,-0.666 1.721,-1.271 1.524,-1.814 1.325,-2.36 1.042,-2.825 0.671,-3.211 0.3,-3.6 -0.152,-3.897 -0.686,-4.105 c -0.533,-0.21 -1.138,-0.316 -1.811,-0.316 -0.713,0 -1.338,0.111 -1.871,0.329 -0.534,0.22 -0.982,0.527 -1.338,0.92 -0.358,0.394 -0.629,0.859 -0.809,1.399 -0.179,0.542 -0.268,1.13 -0.268,1.773 0,0.663 0.094,1.264 0.281,1.8 0.187,0.535 0.464,0.993 0.828,1.368 0.364,0.379 0.814,0.669 1.347,0.87 0.536,0.204 1.149,0.308 1.842,0.308 0.693,0 1.308,-0.104 1.841,-0.31 C -0.11,3.832 0.34,3.539 0.703,3.161 1.07,2.783 1.345,2.325 1.537,1.792 1.726,1.256 1.819,0.659 1.819,0" /></g><g
           transform="translate(181.8809,100.9463)"
           id="g122"><path
             id="path124"
             style="fill:#78bdc9;fill-opacity:1;fill-rule:nonzero;stroke:none"
             d="M 0,0 C 0,0.447 -0.055,0.85 -0.16,1.211 -0.269,1.57 -0.426,1.88 -0.635,2.138 -0.846,2.396 -1.104,2.596 -1.412,2.733 -1.721,2.874 -2.078,2.942 -2.486,2.942 -2.901,2.942 -3.265,2.874 -3.578,2.733 -3.89,2.596 -4.15,2.396 -4.359,2.138 -4.568,1.88 -4.725,1.57 -4.831,1.211 -4.937,0.85 -4.988,0.447 -4.988,0 c 0,-0.445 0.054,-0.851 0.159,-1.22 0.109,-0.369 0.266,-0.685 0.475,-0.951 0.211,-0.266 0.469,-0.475 0.781,-0.625 0.31,-0.147 0.67,-0.224 1.075,-0.224 0.435,0 0.811,0.077 1.126,0.23 0.314,0.149 0.573,0.358 0.776,0.626 0.201,0.268 0.355,0.588 0.451,0.956 C -0.05,-0.839 0,-0.438 0,0 M 1.818,0 C 1.818,-0.666 1.72,-1.271 1.524,-1.814 1.324,-2.36 1.042,-2.825 0.671,-3.211 0.3,-3.6 -0.152,-3.897 -0.687,-4.105 c -0.533,-0.21 -1.137,-0.316 -1.811,-0.316 -0.713,0 -1.337,0.111 -1.871,0.329 -0.533,0.22 -0.981,0.527 -1.338,0.92 -0.358,0.394 -0.629,0.859 -0.808,1.399 -0.179,0.542 -0.268,1.13 -0.268,1.773 0,0.663 0.094,1.264 0.28,1.8 0.187,0.535 0.465,0.993 0.829,1.368 0.363,0.379 0.814,0.669 1.347,0.87 0.535,0.204 1.148,0.308 1.841,0.308 0.693,0 1.308,-0.104 1.841,-0.31 C -0.111,3.832 0.339,3.539 0.703,3.161 1.069,2.783 1.344,2.325 1.536,1.792 1.726,1.256 1.818,0.659 1.818,0" /></g><g
           transform="translate(193.3584,96.6465)"
           id="g126"><path
             id="path128"
             style="fill:#78bdc9;fill-opacity:1;fill-rule:nonzero;stroke:none"
             d="M 0,0 V 5.162 C 0,5.369 0.005,5.58 0.01,5.797 0.016,6.016 0.022,6.214 0.032,6.396 0.045,6.61 0.055,6.816 0.062,7.019 -0.024,6.701 -0.103,6.398 -0.179,6.111 -0.214,5.991 -0.248,5.865 -0.282,5.738 -0.319,5.607 -0.354,5.484 -0.389,5.361 -0.423,5.241 -0.457,5.128 -0.489,5.024 -0.521,4.919 -0.548,4.828 -0.573,4.751 L -2.109,0 H -3.377 L -4.914,4.751 C -4.938,4.828 -4.966,4.919 -4.995,5.024 -5.024,5.128 -5.06,5.241 -5.091,5.361 -5.126,5.484 -5.162,5.607 -5.199,5.738 -5.233,5.865 -5.271,5.991 -5.308,6.111 -5.389,6.398 -5.472,6.701 -5.561,7.019 -5.548,6.785 -5.536,6.557 -5.524,6.33 -5.517,6.136 -5.509,5.932 -5.499,5.718 -5.491,5.507 -5.489,5.32 -5.489,5.162 V 0 h -1.583 v 8.519 h 2.387 l 1.524,-4.765 c 0.042,-0.126 0.083,-0.278 0.13,-0.46 0.047,-0.18 0.092,-0.356 0.135,-0.526 0.049,-0.197 0.101,-0.404 0.158,-0.615 0.056,0.209 0.11,0.41 0.164,0.603 0.025,0.085 0.047,0.172 0.071,0.26 0.025,0.088 0.05,0.176 0.074,0.26 0.026,0.084 0.047,0.165 0.072,0.242 0.024,0.076 0.046,0.145 0.066,0.207 l 1.5,4.794 H 1.586 L 1.586,0 Z" /></g><g
           transform="translate(206.3604,103.7852)"
           id="g130"><path
             id="path132"
             style="fill:#78bdc9;fill-opacity:1;fill-rule:nonzero;stroke:none"
             d="M 0,0 V -7.139 H -1.784 V 0 h -2.751 v 1.38 h 7.292 l 0,-1.38 z" /></g><g
           transform="translate(217.5547,100.9463)"
           id="g134"><path
             id="path136"
             style="fill:#78bdc9;fill-opacity:1;fill-rule:nonzero;stroke:none"
             d="M 0,0 C 0,0.447 -0.053,0.85 -0.16,1.211 -0.267,1.57 -0.426,1.88 -0.635,2.138 -0.844,2.396 -1.102,2.596 -1.412,2.733 -1.72,2.874 -2.078,2.942 -2.483,2.942 -2.899,2.942 -3.263,2.874 -3.575,2.733 -3.888,2.596 -4.148,2.396 -4.359,2.138 -4.568,1.88 -4.726,1.57 -4.829,1.211 -4.935,0.85 -4.986,0.447 -4.986,0 c 0,-0.445 0.051,-0.851 0.159,-1.22 0.106,-0.369 0.266,-0.685 0.474,-0.951 0.21,-0.266 0.47,-0.475 0.78,-0.625 0.31,-0.147 0.669,-0.224 1.077,-0.224 0.435,0 0.809,0.077 1.124,0.23 0.314,0.149 0.572,0.358 0.776,0.626 0.204,0.268 0.355,0.588 0.45,0.956 C -0.047,-0.839 0,-0.438 0,0 M 1.82,0 C 1.82,-0.666 1.72,-1.271 1.523,-1.814 1.327,-2.36 1.042,-2.825 0.67,-3.211 0.302,-3.6 -0.15,-3.897 -0.687,-4.105 c -0.534,-0.21 -1.135,-0.316 -1.809,-0.316 -0.713,0 -1.338,0.111 -1.87,0.329 -0.536,0.22 -0.982,0.527 -1.341,0.92 -0.358,0.394 -0.626,0.859 -0.807,1.399 -0.178,0.542 -0.269,1.13 -0.269,1.773 0,0.663 0.093,1.264 0.283,1.8 0.187,0.535 0.462,0.993 0.828,1.368 0.363,0.379 0.814,0.669 1.347,0.87 0.534,0.204 1.148,0.308 1.842,0.308 0.693,0 1.305,-0.104 1.84,-0.31 C -0.108,3.832 0.342,3.539 0.705,3.161 1.068,2.783 1.347,2.325 1.535,1.792 1.726,1.256 1.82,0.659 1.82,0" /></g><g
           transform="translate(230.6846,97.9219)"
           id="g138"><path
             id="path140"
             style="fill:#78bdc9;fill-opacity:1;fill-rule:nonzero;stroke:none"
             d="M 0,0 C 0.258,0 0.506,0.02 0.742,0.062 0.98,0.101 1.202,0.155 1.406,0.221 1.607,0.287 1.792,0.364 1.954,0.45 2.119,0.536 2.252,0.627 2.357,0.721 V 1.897 H 0.277 V 3.216 H 3.989 V 0.084 C 3.795,-0.113 3.562,-0.302 3.289,-0.482 3.014,-0.659 2.706,-0.816 2.362,-0.951 2.021,-1.087 1.647,-1.194 1.241,-1.275 0.835,-1.356 0.405,-1.396 -0.049,-1.396 c -0.753,0 -1.402,0.111 -1.947,0.329 -0.544,0.219 -0.991,0.526 -1.343,0.92 -0.349,0.393 -0.609,0.858 -0.777,1.398 -0.167,0.542 -0.25,1.131 -0.25,1.773 0,0.664 0.089,1.264 0.267,1.8 0.177,0.535 0.446,0.993 0.807,1.368 0.361,0.379 0.813,0.669 1.359,0.87 0.545,0.205 1.188,0.308 1.925,0.308 0.536,0 1.013,-0.054 1.431,-0.157 C 1.841,7.107 2.205,6.958 2.517,6.766 2.829,6.571 3.093,6.338 3.304,6.067 3.515,5.794 3.682,5.49 3.808,5.15 L 2.163,4.653 C 2.092,4.834 1.993,5.001 1.873,5.16 1.753,5.32 1.603,5.458 1.423,5.578 1.243,5.696 1.037,5.79 0.801,5.861 0.565,5.932 0.295,5.967 -0.008,5.967 -0.45,5.967 -0.834,5.898 -1.156,5.758 -1.478,5.62 -1.743,5.421 -1.955,5.162 -2.163,4.904 -2.318,4.595 -2.42,4.235 -2.521,3.874 -2.569,3.472 -2.569,3.024 c 0,-0.445 0.051,-0.85 0.152,-1.221 0.104,-0.371 0.26,-0.692 0.472,-0.957 C -1.733,0.58 -1.466,0.374 -1.144,0.224 -0.822,0.073 -0.44,0 0,0" /></g><g
           transform="translate(243.1475,102.5537)"
           id="g142"><path
             id="path144"
             style="fill:#78bdc9;fill-opacity:1;fill-rule:nonzero;stroke:none"
             d="M 0,0 C 0,0.413 -0.134,0.723 -0.407,0.925 -0.68,1.126 -1.066,1.227 -1.57,1.227 h -2.286 v -2.515 h 2.333 c 0.265,0 0.496,0.031 0.685,0.093 0.192,0.062 0.35,0.15 0.473,0.266 0.122,0.115 0.216,0.25 0.275,0.408 C -0.029,-0.363 0,-0.189 0,0 m 0.212,-5.907 -1.977,3.235 h -2.091 v -3.235 h -1.783 v 8.518 h 4.255 c 0.531,0 0.996,-0.059 1.394,-0.18 C 0.406,2.313 0.738,2.144 1.004,1.925 1.27,1.706 1.469,1.438 1.599,1.126 1.731,0.813 1.796,0.462 1.796,0.071 1.796,-0.246 1.749,-0.538 1.655,-0.802 1.56,-1.066 1.429,-1.3 1.262,-1.507 1.095,-1.712 0.896,-1.883 0.665,-2.023 0.436,-2.161 0.185,-2.264 -0.083,-2.328 l 2.301,-3.579 z" /></g><g
           transform="translate(254.1494,100.9463)"
           id="g146"><path
             id="path148"
             style="fill:#78bdc9;fill-opacity:1;fill-rule:nonzero;stroke:none"
             d="M 0,0 C 0,0.447 -0.054,0.85 -0.159,1.211 -0.268,1.57 -0.426,1.88 -0.634,2.138 -0.846,2.396 -1.104,2.596 -1.411,2.733 -1.721,2.874 -2.077,2.942 -2.485,2.942 -2.9,2.942 -3.265,2.874 -3.577,2.733 -3.89,2.596 -4.15,2.396 -4.358,2.138 -4.568,1.88 -4.726,1.57 -4.83,1.211 -4.937,0.85 -4.988,0.447 -4.988,0 c 0,-0.445 0.054,-0.851 0.16,-1.22 0.108,-0.369 0.266,-0.685 0.474,-0.951 0.211,-0.266 0.47,-0.475 0.783,-0.625 0.308,-0.147 0.668,-0.224 1.073,-0.224 0.435,0 0.811,0.077 1.126,0.23 0.315,0.149 0.573,0.358 0.777,0.626 0.201,0.268 0.354,0.588 0.449,0.956 C -0.049,-0.839 0,-0.438 0,0 M 1.819,0 C 1.819,-0.666 1.721,-1.271 1.524,-1.814 1.325,-2.36 1.042,-2.825 0.671,-3.211 0.3,-3.6 -0.152,-3.897 -0.686,-4.105 c -0.534,-0.21 -1.138,-0.316 -1.812,-0.316 -0.712,0 -1.337,0.111 -1.87,0.329 -0.534,0.22 -0.982,0.527 -1.338,0.92 -0.358,0.394 -0.629,0.859 -0.809,1.399 -0.179,0.542 -0.268,1.13 -0.268,1.773 0,0.663 0.094,1.264 0.281,1.8 0.187,0.535 0.465,0.993 0.828,1.368 0.363,0.379 0.815,0.669 1.347,0.87 0.536,0.204 1.148,0.308 1.842,0.308 0.693,0 1.307,-0.104 1.84,-0.31 C -0.11,3.832 0.339,3.539 0.703,3.161 1.069,2.783 1.345,2.325 1.537,1.792 1.726,1.256 1.819,0.659 1.819,0" /></g><g
           transform="translate(267.2012,96.6465)"
           id="g150"><path
             id="path152"
             style="fill:#78bdc9;fill-opacity:1;fill-rule:nonzero;stroke:none"
             d="M 0,0 H -2.117 L -3.272,4.926 C -3.307,5.076 -3.346,5.253 -3.391,5.46 -3.432,5.664 -3.472,5.862 -3.509,6.057 -3.553,6.278 -3.592,6.51 -3.629,6.745 -3.673,6.51 -3.717,6.276 -3.762,6.053 -3.781,5.954 -3.801,5.855 -3.82,5.752 -3.843,5.648 -3.862,5.548 -3.884,5.45 -3.907,5.352 -3.929,5.258 -3.946,5.17 -3.963,5.081 -3.982,5 -4.002,4.926 L -5.15,0 h -2.117 l -2.196,8.519 h 1.808 L -6.591,3.778 C -6.53,3.52 -6.474,3.267 -6.422,3.016 -6.369,2.768 -6.32,2.544 -6.276,2.345 c 0.048,-0.229 0.093,-0.45 0.132,-0.658 0.062,0.299 0.121,0.588 0.177,0.87 0.023,0.123 0.049,0.245 0.076,0.376 0.03,0.128 0.057,0.255 0.083,0.38 0.026,0.126 0.053,0.244 0.08,0.36 0.024,0.115 0.049,0.219 0.069,0.312 l 1.052,4.534 h 1.994 L -1.536,3.985 C -1.512,3.887 -1.487,3.778 -1.463,3.66 -1.441,3.542 -1.416,3.416 -1.392,3.289 l 0.074,-0.376 c 0.022,-0.128 0.044,-0.253 0.067,-0.374 0.047,-0.283 0.096,-0.565 0.145,-0.852 0.045,0.225 0.098,0.459 0.149,0.7 0.045,0.207 0.097,0.432 0.153,0.678 0.056,0.247 0.111,0.485 0.167,0.713 L 0.391,8.519 H 2.2 Z" /></g><path
           id="path154"
           style="fill:#78bdc9;fill-opacity:1;fill-rule:nonzero;stroke:none"
           d="m 65.806,100.28 h 19.93 v 1.258 h -19.93 z" /><path
           id="path156"
           style="fill:#78bdc9;fill-opacity:1;fill-rule:nonzero;stroke:none"
           d="m 274.267,100.28 h 19.928 v 1.258 h -19.928 z" /></g></g></g></svg>